# AST/ASF file generated using VICON BodyLanguage
# -----------------------------------------------
:version 1.10
:name VICON
:units
  mass 1.0
  length 0.45
  angle deg
:documentation
   .ast/.asf automatically generated from VICON data using
   VICON BodyBuilder and BodyLanguage model FoxedUp or BRILLIANT.MOD
:root
   order TX TY TZ RX RY RZ
   axis XYZ
   position 0 0 0  
   orientation 0 0 0 
:bonedata
  begin
     id 1 
     name lhipjoint
     direction 0.575328 -0.747301 0.332475 
     length 2.40933 
     axis 0 0 0  XYZ
  end
  begin
     id 2 
     name lfemur
     direction 0.34202 -0.939693 0  
     length 7.31453  
     axis 0 0 20  XYZ
    dof rx ry rz
    limits (-160.0 20.0)
           (-70.0 70.0)
           (-60.0 70.0)
  end
  begin
     id 3 
     name ltibia
     direction 0.34202 -0.939693 0   
     length 7.82185   
     axis 0 0 20   XYZ
    dof rx
    limits (-10.0 170.0)
  end
  begin
     id 4 
     name lfoot
     direction 0.0795993 -0.218697 0.972541   
     length 2.19173   
     axis -90 7.62852e-016 20   XYZ
    dof rx rz
    limits (-45.0 90.0)
           (-70.0 20.0)
  end
  begin
     id 5 
     name ltoes
     direction 1.53537e-011 -4.21894e-011 1   
     length 1.10023   
     axis -90 7.62852e-016 20   XYZ
    dof rx
    limits (-90.0 20.0)
  end
  begin
     id 6 
     name rhipjoint
     direction -0.513884 -0.783789 0.348708   
     length 2.29716  
     axis 0 0 0  XYZ 
  end
  begin
     id 7 
     name rfemur
     direction -0.34202 -0.939693 0   
     length 7.59573   
     axis 0 0 -20   XYZ
    dof rx ry rz
    limits (-160.0 20.0)
           (-70.0 70.0)
           (-70.0 60.0)
  end
  begin
     id 8 
     name rtibia
     direction -0.34202 -0.939693 0   
     length 7.66402   
     axis 0 0 -20   XYZ
    dof rx
    limits (-10.0 170.0)
 end
 begin
     id 9 
     name rfoot
     direction -0.137793 -0.378584 0.915253   
     length 2.27056  
     axis -90 -7.62852e-016 -20   XYZ
    dof rx rz
    limits (-45.0 90.0)
           (-20.0 70.0)
  end
  begin
     id 10 
     name rtoes
     direction -1.53493e-011 -4.22159e-011 1   
     length 1.11766   
     axis -90 -7.62852e-016 -20   XYZ
    dof rx
    limits (-90.0 20.0)
  end
  begin
     id 11 
     name lowerback
     direction -0.00732775 0.998356 -0.05685   
     length 2.16513   
     axis 0 0 0   XYZ
    dof rx ry rz
    limits (-20.0 45.0)
           (-30.0 30.0)
           (-30.0 30.0)
  end
  begin
     id 12 
     name upperback
     direction 0.0218081 0.999627 -0.0164647   
     length 2.16755   
     axis 0 0 0   XYZ
    dof rx ry rz
    limits (-20.0 45.0)
           (-30.0 30.0)
           (-30.0 30.0)
  end
  begin
     id 13 
     name thorax
     direction 0.02365 0.999661 0.0108914   
     length 2.16932   
     axis 0 0 0   XYZ
    dof rx ry rz
    limits (-20.0 45.0)
           (-30.0 30.0)
           (-30.0 30.0)
  end
  begin
     id 14 
     name lowerneck
     direction -0.0523929 0.978385 0.200044   
     length 1.63877   
     axis 0 0 0   XYZ
    dof rx ry rz
    limits (-20.0 45.0)
           (-30.0 30.0)
           (-30.0 30.0)
  end
  begin
     id 15 
     name upperneck
     direction 0.0448674 0.981321 -0.187074   
     length 1.69014   
     axis 0 0 0   XYZ
    dof rx ry rz
    limits (-20.0 45.0)
           (-30.0 30.0)
           (-30.0 30.0)
  end
  begin
     id 16
     name head
     direction 0.0199089 0.996118 -0.0857429  
     length 1.70094  
     axis 0 0 0   XYZ
    dof rx ry rz
    limits (-20.0 45.0)
           (-30.0 30.0)
           (-30.0 30.0)
  end
  begin
     id 17 
     name lclavicle
     direction 0.940366 0.30191 -0.156722  
     length 3.37521  
     axis 0 0 0   XYZ
    dof ry rz
    limits (-20.0 10.0)
           (0.0 20.0)
  end
  begin
     id 18 
     name lhumerus
     direction 1 -4.4897e-011 -1.7911e-027   
     length 5.25287   
     axis 180 -30 -90   XYZ
    dof rx ry rz
    limits (-60.0 90.0)
           (-90.0 90.0)
           (-90.0 90.0)
  end
  begin
     id 19
     name lradius
     direction 1 -4.48951e-011 1.04424e-027   
     length 3.51014   
     axis 180 -30 -90   XYZ
    dof rx
    limits (-10.0 170.0)
  end
  begin
     id 20
     name lwrist
     direction 1 -4.48997e-011 -9.5942e-028   
     length 1.75507   
     axis 8.48502e-016 90 90   XYZ
    dof ry
    limits (-180.0 0.0)
 end
  begin
     id 21 
     name lhand
     direction 1 -4.48831e-011 -1.90777e-027   
     length 0.706179   
     axis 1.22306e-015 90 90   XYZ
    dof rx rz
    limits (-90.0 90.0)
           (-45.0 45.0)
  end
  begin
     id 22 
     name lfingers
     direction 1 -4.49108e-011 -3.85244e-027   
     length 0.569339   
     axis 2.44611e-015 90 90   XYZ
    dof rx
    limits (0.0 90.0)
  end
  begin
     id 23
     name lthumb
     direction 0.707107 -6.34953e-011 0.707107   
     length 0.817461   
     axis -90 45 -1.62303e-014   XYZ
    dof rx rz
    limits (-45.0 45.0)
           (-45.0 45.0)
  end
  begin
     id 24 
     name rclavicle
     direction -0.905329 0.382405 -0.184787   
     length 3.30787  
     axis 0 0 0   XYZ 
    dof ry rz
    limits (-10.0 20.0)
           (-20.0 0.0)
  end
  begin
     id 25 
     name rhumerus
     direction -1 -4.48953e-011 -9.15316e-029  
     length 5.28721   
     axis 180 30 90   XYZ
    dof rx ry rz
    limits (-90.0 60.0)
           (-90.0 90.0)
           (-90.0 90.0)
  end
  begin
     id 26 
     name rradius
     direction -1 -4.48987e-011 9.37824e-028   
     length 3.50544   
     axis 180 30 90   XYZ
    dof rx
    limits (-10.0 170.0)
  end
  begin
     id 27 
     name rwrist
     direction -1 -4.48967e-011 -9.58414e-028   
     length 1.75272   
     axis 8.48502e-016 -90 -90   XYZ
    dof ry
    limits (-180.0 0.0)
  end
  begin
     id 28
     name rhand
     direction -1 -4.48904e-011 -1.91266e-027   
     length 0.884996   
     axis 1.22306e-015 -90 -90   XYZ
    dof rx rz
    limits (-90.0 90.0)
           (-45.0 45.0)
  end
  begin
     id 29
     name rfingers
     direction -1 -4.4909e-011 -3.85015e-027   
     length 0.713507   
     axis 2.44611e-015 -90 -90   XYZ
    dof rx
    limits (0.0 90.0)
  end
  begin
     id 30
     name rthumb
     direction -0.707107 -6.34853e-011 0.707107   
     length 1.02446   
     axis -90 -45 1.62303e-014   XYZ
    dof rx rz
    limits (-45.0 45.0)
           (-45.0 45.0)
  end
:hierarchy
  begin
    root lhipjoint rhipjoint lowerback
    lhipjoint lfemur
    lfemur ltibia
    ltibia lfoot
    lfoot ltoes
    rhipjoint rfemur
    rfemur rtibia
    rtibia rfoot
    rfoot rtoes
    lowerback upperback
    upperback thorax
    thorax lowerneck lclavicle rclavicle
    lowerneck upperneck
    upperneck head
    lclavicle lhumerus
    lhumerus lradius
    lradius lwrist
    lwrist lhand lthumb
    lhand lfingers
    rclavicle rhumerus
    rhumerus rradius
    rradius rwrist
    rwrist rhand rthumb
    rhand rfingers
  end

#!OML:ASF F:\twosubjects\two\Thursday\Session 1\justin.ASF
:FULLY-SPECIFIED
:DEGREES
33
root 14.6758 17.7464 13.5544 2.99211 -65.225 4.44275
lowerback 11.425 -2.56045 -4.30074
upperback 7.542 -4.03393 2.52169
thorax 2.00511 -2.36172 5.41759
lowerneck 3.878 -19.7543 -19.396
upperneck 1.98053 -29.4437 28.4319
head 7.40403 -14.7176 8.86294
rclavicle -1.51076e-014 -9.14409e-015
rhumerus -37.5199 3.12815 -31.4137
rradius 26.1669
rwrist 41.0239
rhand -26.6071 2.56288
rfingers 7.12502
rthumb -0.0406141 -27.4169
lclavicle -1.51076e-014 -9.14409e-015
lhumerus -23.0362 12.4297 40.6742
lradius 39.6562
lwrist -6.48946
lhand -6.32954 35.9258
lfingers 7.12502
lthumb 19.5155 64.9664
rfemur -24.0027 -5.60183 6.5897
rtibia 41.1409
rfoot -17.8786 -13.5076
rtoes -31.3129
lfemur -23.4932 8.92838 -7.55131
ltibia 40.3464
lfoot -11.0356 1.54158
ltoes -36.3549
34
root 14.6627 17.7449 13.4181 4.3801 -65.4367 3.26383
lowerback 11.7691 -2.4038 -3.97792
upperback 7.46919 -3.80644 2.53249
thorax 1.68862 -2.2252 5.25214
lowerneck 3.4211 -19.4736 -18.6641
upperneck 2.10441 -28.9386 28.1464
head 7.22834 -14.4364 8.77315
rclavicle 1.06549e-013 -1.2921e-014
rhumerus -38.4829 2.96431 -32.5396
rradius 26.364
rwrist 41.1987
rhand -26.5471 1.99755
rfingers 7.12502
rthumb 0.0173592 -27.9822
lclavicle 1.06549e-013 -1.2921e-014
lhumerus -22.959 12.4381 40.015
lradius 39.7316
lwrist -6.26769
lhand -6.4711 36.0043
lfingers 7.12502
lthumb 19.3794 65.0586
rfemur -24.9641 -5.65233 7.59117
rtibia 41.7598
rfoot -18.282 -12.8968
rtoes -29.7709
lfemur -24.179 8.83359 -6.60883
ltibia 40.7025
lfoot -10.0998 1.74661
ltoes -37.3547
35
root 14.6477 17.7517 13.2857 5.77222 -65.6399 2.09004
lowerback 12.1277 -2.21879 -3.96459
upperback 7.38418 -3.57179 2.78708
thorax 1.39477 -2.10497 5.5171
lowerneck 2.88036 -19.2094 -18.1836
upperneck 2.18727 -28.4119 27.6998
head 7.06245 -14.1371 8.65056
rclavicle 6.44062e-014 -2.26615e-014
rhumerus -39.249 3.07115 -33.4907
rradius 26.5018
rwrist 40.9767
rhand -26.6245 1.32606
rfingers 7.12502
rthumb -0.057445 -28.6537
lclavicle 6.44062e-014 -2.26615e-014
lhumerus -23.0758 12.4539 39.7139
lradius 39.8637
lwrist -5.7672
lhand -7.00348 35.8879
lfingers 7.12502
lthumb 18.8675 64.9929
rfemur -25.8223 -5.4779 8.57554
rtibia 42.2976
rfoot -18.6062 -12.5265
rtoes -28.1731
lfemur -24.8621 8.77816 -5.70206
ltibia 41.0782
lfoot -9.17864 1.90314
ltoes -36.6704
36
root 14.6342 17.7637 13.1563 6.8986 -65.7083 1.2878
lowerback 12.5034 -1.91475 -4.07748
upperback 7.29968 -3.19295 3.19475
thorax 1.09084 -1.92034 6.00148
lowerneck 1.88141 -19.1402 -17.9297
upperneck 2.37411 -28.0911 27.0363
head 7.05351 -13.8913 8.37907
rclavicle -1.98785e-016 -6.75868e-015
rhumerus -40.1673 3.15371 -34.0316
rradius 26.6096
rwrist 40.362
rhand -26.6512 0.553856
rfingers 7.12502
rthumb -0.0832171 -29.4259
lclavicle -1.98785e-016 -6.75868e-015
lhumerus -22.7888 12.7576 40.0482
lradius 39.8337
lwrist -5.66787
lhand -7.30396 35.6205
lfingers 7.12502
lthumb 18.5785 64.7534
rfemur -26.6615 -5.46926 9.41023
rtibia 42.7087
rfoot -18.7738 -12.2411
rtoes -27.4217
lfemur -25.6245 8.32845 -4.95017
ltibia 41.3921
lfoot -8.25278 2.15638
ltoes -34.695
37
root 14.627 17.7676 13.0286 7.50324 -65.7762 1.11711
lowerback 12.7062 -1.53011 -4.13541
upperback 7.3169 -2.69798 3.29091
thorax 0.942077 -1.6732 6.09601
lowerneck 0.642821 -19.1576 -16.8826
upperneck 2.46891 -27.8161 26.1631
head 6.91636 -13.6582 7.92213
rclavicle -6.24184e-014 2.74323e-014
rhumerus -41.4074 2.37777 -34.6131
rradius 26.6954
rwrist 40.0578
rhand -26.5592 -0.0652114
rfingers 7.12502
rthumb 0.005679 -30.045
lclavicle -6.24184e-014 2.74323e-014
lhumerus -21.9061 13.0046 40.2893
lradius 39.7531
lwrist -5.98002
lhand -6.89667 35.3167
lfingers 7.12502
lthumb 18.9702 64.4116
rfemur -27.5346 -5.60043 9.94929
rtibia 42.9853
rfoot -18.8759 -11.8527
rtoes -27.4315
lfemur -26.4384 7.8396 -4.49882
ltibia 41.6471
lfoot -7.33715 2.4546
ltoes -32.659
38
root 14.6165 17.7681 12.9075 7.82935 -65.868 1.18722
lowerback 12.8019 -1.22713 -4.19312
upperback 7.38386 -2.30935 3.22476
thorax 0.907526 -1.4798 6.01954
lowerneck -0.703787 -19.0568 -15.479
upperneck 2.67508 -27.4092 25.1495
head 6.73851 -13.3572 7.40782
rclavicle -1.11319e-014 -7.51406e-014
rhumerus -42.5942 1.46498 -35.2761
rradius 26.8422
rwrist 39.9829
rhand -26.4455 -0.654613
rfingers 7.12502
rthumb 0.115448 -30.6343
lclavicle -1.11319e-014 -7.51406e-014
lhumerus -21.2983 12.9499 40.342
lradius 40.0351
lwrist -5.95622
lhand -6.51966 35.3368
lfingers 7.12502
lthumb 19.3327 64.3958
rfemur -28.2353 -5.54687 10.2901
rtibia 43.159
rfoot -19.2034 -11.3723
rtoes -26.3863
lfemur -27.1551 7.56974 -4.23165
ltibia 41.8786
lfoot -6.42947 2.91931
ltoes -32.2222
39
root 14.5972 17.7728 12.7925 8.14656 -65.8459 1.0405
lowerback 13.1215 -1.16648 -4.37611
upperback 7.39988 -2.26158 3.26328
thorax 0.758103 -1.46032 6.17368
lowerneck -1.88618 -18.6529 -14.9178
upperneck 3.21275 -26.7523 24.5256
head 6.78789 -12.936 7.17295
rclavicle 4.47266e-014 -1.19271e-014
rhumerus -43.2248 0.861615 -35.758
rradius 26.9365
rwrist 40.0594
rhand -24.2092 -0.70672
rfingers 7.12502
rthumb 2.27528 -30.6743
lclavicle 4.47266e-014 -1.19271e-014
lhumerus -21.5623 12.7998 40.1635
lradius 40.4907
lwrist -5.43602
lhand -7.07448 35.6465
lfingers 7.12502
lthumb 18.7992 64.7581
rfemur -28.5668 -5.23905 10.675
rtibia 43.3012
rfoot -19.6874 -11.2814
rtoes -25.1635
lfemur -27.6329 7.21751 -3.8859
ltibia 42.112
lfoot -5.64147 3.53205
ltoes -31.5501
40
root 14.576 17.7816 12.6746 8.58161 -65.7401 0.773241
lowerback 13.3939 -1.06488 -4.48837
upperback 7.43102 -2.15102 3.18185
thorax 0.631259 -1.40424 6.14915
lowerneck -2.6533 -18.2327 -14.1284
upperneck 3.31289 -26.1033 24.2644
head 6.67142 -12.5689 7.06436
rclavicle -4.77083e-015 2.14687e-014
rhumerus -44.1501 -0.487754 -36.1398
rradius 26.9679
rwrist 40.4313
rhand -26.0222 0.652684
rfingers 7.12502
rthumb 0.524296 -29.3264
lclavicle -4.77083e-015 2.14687e-014
lhumerus -21.3983 11.8838 39.7292
lradius 40.7678
lwrist -4.4026
lhand -7.8725 35.7356
lfingers 7.12502
lthumb 18.0315 64.9198
rfemur -28.8967 -4.94869 11.1956
rtibia 43.4336
rfoot -19.8582 -11.6214
rtoes -25.4707
lfemur -28.1583 6.96713 -3.51857
ltibia 42.3604
lfoot -5.01716 3.95559
ltoes -29.2796
41
root 14.5569 17.7861 12.5627 9.03162 -65.6378 0.631296
lowerback 13.4432 -0.718666 -4.3846
upperback 7.55777 -1.68986 3.10007
thorax 0.666844 -1.17371 5.94683
lowerneck -3.17949 -18.046 -13.765
upperneck 2.81569 -25.7602 24.6218
head 6.55295 -12.3888 7.15495
rclavicle -1.11121e-013 5.08889e-014
rhumerus -45.6135 -2.31364 -36.2632
rradius 27.0612
rwrist 40.3852
rhand -25.8442 0.885615
rfingers 7.12502
rthumb 0.696183 -29.093
lclavicle -1.11121e-013 5.08889e-014
lhumerus -20.2953 11.0716 39.8064
lradius 40.8656
lwrist -4.10525
lhand -7.58816 35.4498
lfingers 7.12502
lthumb 18.3051 64.6085
rfemur -29.4192 -4.88554 11.6732
rtibia 43.5869
rfoot -19.8392 -11.638
rtoes -25.4365
lfemur -28.8192 6.8871 -3.32875
ltibia 42.6347
lfoot -4.412 4.4577
ltoes -27.1088
42
root 14.5431 17.7888 12.4591 9.89826 -65.5154 0.0517787
lowerback 13.5472 -0.505103 -4.13291
upperback 7.66752 -1.38988 3.19374
thorax 0.681216 -1.02349 5.86758
lowerneck -3.57633 -17.7004 -14.4565
upperneck 2.32181 -25.2433 25.5359
head 6.6136 -12.131 7.59215
rclavicle -6.10269e-014 4.69132e-014
rhumerus -46.5795 -3.41633 -36.4646
rradius 27.0739
rwrist 39.5183
rhand -25.9001 0.630095
rfingers 7.12502
rthumb 0.642188 -29.3487
lclavicle -6.10269e-014 4.69132e-014
lhumerus -19.6669 11.343 39.9755
lradius 40.953
lwrist -4.87025
lhand -6.79142 35.1883
lfingers 7.12502
lthumb 19.0714 64.2733
rfemur -29.9683 -4.66046 12.288
rtibia 43.7468
rfoot -19.9538 -11.5958
rtoes -24.9345
lfemur -29.5069 6.86285 -3.02966
ltibia 42.937
lfoot -3.86816 5.22384
ltoes -25.7119
43
root 14.5321 17.7941 12.353 10.9458 -65.352 -0.69323
lowerback 13.6782 -0.444908 -3.87409
upperback 7.70501 -1.28797 3.2497
thorax 0.63072 -0.966281 5.76945
lowerneck -3.89542 -17.1473 -15.142
upperneck 2.02873 -24.4786 26.4169
head 6.66083 -11.7523 8.09145
rclavicle -7.196e-014 2.14687e-014
rhumerus -47.3684 -4.06852 -36.9527
rradius 27.073
rwrist 38.5469
rhand -25.7755 0.247701
rfingers 7.12502
rthumb 0.762588 -29.7307
lclavicle -7.196e-014 2.14687e-014
lhumerus -19.5108 11.4562 39.765
lradius 41.1478
lwrist -5.43644
lhand -6.44397 35
lfingers 7.12502
lthumb 19.4055 64.0517
rfemur -30.5235 -4.30419 12.9678
rtibia 43.869
rfoot -20.0865 -11.6812
rtoes -23.937
lfemur -30.3017 6.99885 -2.71311
ltibia 43.2821
lfoot -3.59833 5.8689
ltoes -25.0443
44
root 14.5159 17.8023 12.2539 11.621 -65.1414 -1.08753
lowerback 13.7846 -0.384793 -3.68603
upperback 7.75901 -1.1931 3.1972
thorax 0.611428 -0.913056 5.59583
lowerneck -4.29133 -16.5725 -15.1963
upperneck 1.77078 -23.6413 26.8574
head 6.55499 -11.3359 8.38679
rclavicle -2.10712e-014 1.90833e-014
rhumerus -48.1768 -4.44079 -37.7186
rradius 27.1008
rwrist 37.2897
rhand -25.6758 -0.20199
rfingers 7.12502
rthumb 0.858862 -30.18
lclavicle -2.10712e-014 1.90833e-014
lhumerus -19.2768 10.7711 39.5257
lradius 41.4401
lwrist -5.25221
lhand -6.47392 34.7196
lfingers 7.12502
lthumb 19.3767 63.7741
rfemur -30.922 -4.23483 13.5121
rtibia 43.9256
rfoot -20.1649 -11.6048
rtoes -22.8803
lfemur -31.0189 7.13198 -2.57976
ltibia 43.6756
lfoot -4.04788 6.19539
ltoes -22.7658
45
root 14.4979 17.8094 12.1694 12.8444 -64.7941 -2.28247
lowerback 14.0658 -0.4411 -3.14232
upperback 7.80754 -1.216 3.26444
thorax 0.501699 -0.909741 5.36575
lowerneck -4.6276 -15.9159 -15.3282
upperneck 1.5145 -22.685 27.2779
head 6.41589 -10.8679 8.71878
rclavicle 1.98785e-015 7.95139e-016
rhumerus -48.8197 -4.36533 -38.6652
rradius 27.236
rwrist 35.5827
rhand -25.2519 -1.10144
rfingers 7.12502
rthumb 1.26823 -31.0774
lclavicle 1.98785e-015 7.95139e-016
lhumerus -19.3512 10.0647 39.3183
lradius 41.7847
lwrist -4.89315
lhand -6.68255 34.7205
lfingers 7.12502
lthumb 19.1761 63.7951
rfemur -31.0782 -4.4426 14.4664
rtibia 43.9357
rfoot -20.1588 -11.5322
rtoes -23.0665
lfemur -31.496 7.12759 -2.06163
ltibia 44.1039
lfoot -5.08666 6.00654
ltoes -18.8504
46
root 14.4852 17.8029 12.093 13.7959 -64.3895 -3.16582
lowerback 14.4378 -0.560098 -2.64685
upperback 7.7539 -1.31857 3.36557
thorax 0.247498 -0.94211 5.21472
lowerneck -4.97309 -15.2786 -15.7524
upperneck 1.36589 -21.7464 27.6506
head 6.33633 -10.4013 9.07489
rclavicle 3.02153e-014 -2.26615e-014
rhumerus -49.688 -4.6791 -39.0331
rradius 27.5174
rwrist 34.3491
rhand -24.0842 -1.51052
rfingers 7.12502
rthumb 2.39601 -31.4768
lclavicle 3.02153e-014 -2.26615e-014
lhumerus -19.6401 9.92434 39.1679
lradius 42.0263
lwrist -5.30879
lhand -6.75949 34.6065
lfingers 7.12502
lthumb 19.1021 63.6884
rfemur -31.2619 -4.72748 15.2349
rtibia 43.9183
rfoot -20.1557 -11.4374
rtoes -23.1785
lfemur -32.0408 7.14285 -1.83649
ltibia 44.5447
lfoot -6.02682 5.5203
ltoes -18.9014
47
root 14.4732 17.7885 12.0115 12.8348 -64.1629 -1.90623
lowerback 14.7694 -0.547019 -3.13237
upperback 7.75193 -1.36619 3.24271
thorax 0.086396 -0.973422 5.3788
lowerneck -5.77135 -14.7782 -15.6328
upperneck 1.33835 -20.9253 27.459
head 6.24534 -9.95269 9.10176
rclavicle -3.37934e-015 1.94809e-014
rhumerus -50.5538 -5.83977 -38.8127
rradius 27.3579
rwrist 34.6025
rhand -24.0596 -0.81769
rfingers 7.12502
rthumb 2.4198 -30.7837
lclavicle -3.37934e-015 1.94809e-014
lhumerus -19.6227 10.0955 39.0565
lradius 42.1258
lwrist -6.14393
lhand -6.98329 33.9584
lfingers 7.12502
lthumb 18.8869 63.0615
rfemur -31.4874 -4.96367 14.9388
rtibia 43.924
rfoot -20.223 -11.3513
rtoes -23.6071
lfemur -32.5617 7.09884 -2.72764
ltibia 44.9252
lfoot -7.17667 5.05668
ltoes -20.3428
